<?xml version="1.0" encoding="UTF-8"?>
<svg id="Layer_1" xmlns="http://www.w3.org/2000/svg" version="1.1" viewBox="0 0 612 642.02">
  <!-- Generator: Adobe Illustrator 29.7.1, SVG Export Plug-In . SVG Version: 2.1.1 Build 8)  -->
  <defs>
    <style>
      .st0 {
        fill: #fff;
      }

      .st1 {
        fill: none;
        stroke: #fff;
        stroke-miterlimit: 300;
        stroke-width: .5px;
      }
    </style>
  </defs>
  <path class="st1" d="M102.96,524.87l8.05.25.18,8.05-8.05-.28-.18-8.03ZM94.42,515.44l8.03.63-.19,8.05-8.03-.63.19-8.06ZM86.32,505.65l7.99.99-.56,8.04-7.99-1,.56-8.03ZM78.67,495.49l7.94,1.36-.92,8-7.93-1.37.91-7.99ZM71.49,484.99l7.86,1.71-1.28,7.95-7.86-1.7,1.28-7.97ZM64.78,474.19l7.79,2.06-1.65,7.89-7.79-2.08,1.65-7.88ZM58.57,463.09l7.69,2.42-2,7.79-7.68-2.39,1.99-7.82ZM52.85,451.74l7.57,2.75-2.34,7.71-7.56-2.75,2.33-7.71ZM47.69,440.12l7.42,3.09-2.69,7.6-7.43-3.09,2.7-7.6ZM43.01,428.29l7.31,3.42-3.04,7.47-7.29-3.43,3.03-7.46ZM38.92,416.26l7.12,3.76-3.37,7.31-7.12-3.76,3.37-7.31ZM35.36,404.05l6.95,4.08-3.71,7.16-6.94-4.09,3.7-7.14ZM32.39,391.68l6.75,4.39-4.04,6.98-6.74-4.38,4.03-6.99ZM29.96,379.2l6.54,4.7-4.33,6.79-6.54-4.69,4.33-6.8ZM28.08,366.62l6.33,4.99-4.64,6.57-6.32-4.98,4.62-6.59ZM26.78,353.97l6.09,5.27-4.91,6.37-6.09-5.27,4.91-6.37ZM26.08,341.28l5.83,5.53-5.19,6.13-5.85-5.52,5.22-6.14ZM25.93,328.57l5.6,5.79-5.48,5.9-5.58-5.79,5.47-5.9ZM26.33,315.86l5.33,6.03-5.74,5.65-5.34-6.03,5.75-5.65ZM27.28,303.17l5.08,6.27-5.98,5.4-5.07-6.27,5.97-5.4ZM28.84,290.56l4.77,6.48-6.22,5.12-4.79-6.5,6.23-5.1ZM30.97,278.02l4.47,6.69-6.45,4.84-4.47-6.69,6.45-4.84ZM33.64,265.6l4.17,6.89-6.64,4.53-4.18-6.9,6.65-4.52ZM36.88,253.3l3.85,7.07-6.85,4.23-3.85-7.07,6.85-4.23ZM40.67,241.16l3.55,7.23-7.04,3.91-3.53-7.24,7.03-3.9ZM45.01,229.2l3.19,7.4-7.21,3.6-3.19-7.4,7.21-3.6ZM49.92,217.47l2.86,7.54-7.4,3.25-2.84-7.52,7.37-3.27ZM55.34,205.97l2.51,7.66-7.51,2.91-2.51-7.65,7.51-2.93ZM61.26,194.72l2.17,7.76-7.64,2.57-2.15-7.76,7.62-2.57ZM67.7,183.75l1.82,7.85-7.75,2.23-1.8-7.85,7.73-2.23ZM74.61,173.09l1.47,7.92-7.84,1.89-1.46-7.93,7.83-1.87ZM82.01,162.74l1.09,7.98-7.9,1.52-1.09-7.98,7.9-1.52ZM89.87,152.74l.72,8.03-7.98,1.17-.72-8.03,7.98-1.17ZM98.17,143.1l.37,8.06-8.03.81-.37-8.05,8.03-.81ZM106.88,133.85l.03,8.06-8.05.44v-8.05l8.03-.44ZM116.03,125.01l-.35,8.04-8.06.08.35-8.04,8.05-.08ZM125.54,116.58l-.72,8.02-8.05-.29.73-8,8.04.28ZM135.42,108.57l-1.08,7.98-8.03-.63,1.09-7.98,8.02.63ZM145.65,101.02l-1.43,7.93-7.98-1,1.42-7.93,7.99,1ZM156.23,93.95l-1.8,7.86-7.93-1.37,1.79-7.85,7.94,1.36ZM167.09,87.36l-2.14,7.75-7.87-1.71,2.13-7.76,7.88,1.72ZM178.26,81.27l-2.51,7.65-7.78-2.08,2.48-7.65,7.8,2.08ZM189.69,75.68l-2.84,7.54-7.69-2.42,2.85-7.54,7.67,2.42ZM201.34,70.63l-3.17,7.41-7.57-2.77,3.19-7.41,7.55,2.77ZM423.96,75.26l-7.55,2.77-3.18-7.4,7.55-2.77,3.18,7.4ZM435.42,80.8l-7.69,2.42-2.84-7.54,7.67-2.42,2.85,7.54ZM446.6,86.84l-7.79,2.08-2.48-7.65,7.78-2.08,2.5,7.65ZM457.49,93.4l-7.87,1.71-2.15-7.75,7.88-1.72,2.14,7.76ZM468.08,100.44l-7.94,1.37-1.77-7.86,7.93-1.36,1.79,7.85ZM478.35,107.95l-8,1-1.44-7.93,8-1,1.44,7.93ZM488.24,115.92l-8.02.63-1.06-7.98,8.02-.63,1.06,7.98ZM497.81,124.3l-8.04.29-.72-8.02,8.06-.28.71,8ZM506.96,133.13l-8.05-.06-.35-8.06,8.05.08.35,8.04ZM515.73,142.35l-8.05-.44v-8.06s8.05.46,8.05.46v8.04ZM524.07,151.94l-8.03-.78.38-8.06,8.01.81-.36,8.03ZM531.95,161.93l-7.98-1.18.74-8.02,7.98,1.17-.73,8.03ZM539.38,172.24l-7.91-1.52,1.09-7.99,7.9,1.53-1.08,7.98ZM546.34,182.89l-7.84-1.89,1.46-7.92,7.83,1.87-1.44,7.93ZM552.8,193.83l-7.73-2.23,1.8-7.85,7.74,2.23-1.81,7.85ZM558.78,205.06l-7.62-2.57,2.15-7.75,7.62,2.56-2.15,7.76ZM564.25,216.54l-7.51-2.91,2.52-7.66,7.5,2.93-2.51,7.65ZM569.17,228.26l-7.36-3.25,2.84-7.54,7.37,3.26-2.85,7.54ZM573.57,240.19l-7.19-3.58,3.19-7.41,7.21,3.6-3.2,7.4ZM577.41,252.31l-7.04-3.9,3.53-7.24,7.04,3.91-3.53,7.23ZM580.69,264.6l-6.84-4.23,3.85-7.07,6.87,4.23-3.88,7.07ZM583.42,277.02l-6.66-4.53,4.18-6.89,6.65,4.53-4.17,6.89ZM585.57,289.54l-6.43-4.84,4.46-6.69,6.46,4.84-4.48,6.69ZM587.18,302.16l-6.22-5.12,4.76-6.48,6.23,5.1-4.77,6.5ZM588.2,314.84l-5.97-5.4,5.07-6.27,5.98,5.41-5.08,6.26ZM588.64,327.54l-5.72-5.65,5.33-6.03,5.74,5.65-5.35,6.03ZM588.54,340.25l-5.5-5.9,5.61-5.79,5.49,5.9-5.6,5.79ZM587.85,352.95l-5.21-6.13,5.86-5.53,5.19,6.13-5.85,5.53ZM586.61,365.61l-4.92-6.37,6.1-5.27,4.92,6.37-6.1,5.27ZM584.8,378.19l-4.65-6.57,6.33-4.98,4.64,6.57-6.32,4.98ZM582.41,390.69l-4.33-6.79,6.53-4.7,4.33,6.8-6.54,4.69ZM579.47,403.05l-4.03-6.98,6.75-4.39,4.01,6.98-6.74,4.39ZM575.98,415.28l-3.73-7.16,6.97-4.08,3.7,7.14-6.94,4.09ZM571.91,427.33l-3.36-7.31,7.11-3.76,3.37,7.31-7.12,3.76ZM567.29,439.18l-3.01-7.47,7.27-3.42,3.04,7.46-7.3,3.43ZM562.16,450.81l-2.7-7.6,7.42-3.09,2.71,7.6-7.43,3.09ZM556.5,462.2l-2.36-7.71,7.58-2.75,2.33,7.71-7.55,2.75ZM550.31,473.3l-2-7.79,7.7-2.42,1.98,7.82-7.68,2.39ZM543.63,484.13l-1.62-7.88,7.79-2.06,1.63,7.88-7.8,2.06ZM536.51,494.66l-1.29-7.95,7.88-1.71,1.28,7.97-7.86,1.7ZM528.89,504.85l-.91-8,7.93-1.36.92,7.99-7.94,1.37ZM520.83,514.68l-.56-8.04,7.98-.99.56,8.03-7.98,1ZM512.32,524.12l-.2-8.04,8.03-.63.2,8.06-8.03.62ZM503.39,533.18l.16-8.05,8.06-.25-.17,8.03-8.05.28Z"/>
  <g>
    <path class="st0" d="M470.37,481.18h-9.14v91.35h9.14v-91.35ZM378.3,564.25v-74.81h16.41c11.73,0,21.48,2.83,27.9,7.78,9.64,7.41,14.58,17.78,14.58,29.63,0,9.51-3.22,19.01-10.13,26.42-6.66,7.04-16.79,10.98-31.97,10.98h-16.79ZM395.82,572.53c15.44,0,28.4-4.44,37.29-13.72,8.89-9.12,13.21-20.11,13.21-31.47,0-15.43-7.54-29.99-19.89-38.15-8.14-5.31-19.26-8.02-30.24-8.02h-27.04v91.35h26.67ZM359.87,572.53v-8.28h-37.78v-83.07h-9.14v91.35h46.93ZM275.6,533.52h-35.43l17.88-41.98,17.54,41.98ZM302.38,572.53l-39.26-91.35h-10.25l-39.02,91.35h9.52l13.32-30.74h42.48l13.2,30.74h10.01ZM208.26,572.53l-36.17-46.8,36.17-44.55h-11.73l-41.85,52.46h-.25v-52.46h-9.13v91.35h9.13v-25.06l11.85-14.58,30.5,39.64h11.47Z"/>
    <path class="st0" d="M316.06,442.43c0,1.46-1.47,1.46-1.47,1.46h-19.1c-1.47,0-1.47-1.46-1.47-1.46v-19.24c0-1.48,1.47-1.48,1.47-1.48h19.1c1.47,0,1.47,1.48,1.47,1.48v19.24ZM353.52,414.89c1.11-8.71-4.25-12.4-11.98-8.22l-24.42,13.97c-.82-.8-1.92-1.31-3.17-1.31h-17.91c-1.32,0-2.46.58-3.27,1.47l-24.34-14.07c-7.73-4.22-12.99-.57-11.78,8.13l2.41,17.92-2.41,17.93c-1.21,8.69,4.05,12.33,11.78,8.13l24.34-14.07c.81.89,1.95,1.46,3.27,1.46h17.91c1.24,0,2.34-.49,3.17-1.3l24.42,13.97c7.73,4.18,13.1.49,11.98-8.21l-2.2-17.91,2.2-17.9Z"/>
    <path class="st0" d="M221.81,253.37v112.26c0,15.32,12.41,27.76,27.74,27.76h53.45v-37.67c-14.28-1.93-30.75-22.58-31.46-23.51-.72-.91-.56-2.22.33-2.93.91-.72,2.22-.56,2.94.34.16.23,17.58,22.12,30.29,22.12,10.55,0,25.43-15.96,30.27-22.12.72-.9,2.03-1.06,2.94-.34.89.71,1.05,2.01.33,2.93-.71.92-17.17,21.58-31.46,23.51v37.67h53.45c15.32,0,27.76-12.44,27.76-27.76v-112.26c-7.7,12.44-20.9,20.67-35.94,20.67-23.76,0-43.04-20.51-43.04-45.77,0-1.8.32-3.31.51-4.93-3.22-.39-6.43-.37-9.62.1.18,1.6.48,3.07.48,4.83,0,25.27-19.28,45.77-43.04,45.77-15.05,0-28.24-8.23-35.92-20.67M360.62,231.67c0,6.02-4.89,10.89-10.91,10.89s-10.89-4.88-10.89-10.89,4.88-10.89,10.89-10.89,10.91,4.88,10.91,10.89M387.14,228.27c0-8.99-2.91-15.32-8.92-19.35-1.29-.87-2.76-1.61-4.32-2.28-.53-.23-1.1-.43-1.67-.63-1.13-.41-2.29-.77-3.53-1.1-.7-.18-1.39-.37-2.13-.52-1.79-.38-3.67-.7-5.66-.91-2.65-.29-5.46-.44-8.47-.44-11.27,0-19.96,1.98-25.79,5.89-6,4.03-8.92,10.36-8.92,19.35,0,20.64,15.58,37.45,34.7,37.45s34.7-16.81,34.7-37.45M271.34,231.67c0,6.02-4.88,10.89-10.89,10.89s-10.9-4.88-10.9-10.89,4.89-10.89,10.9-10.89,10.89,4.88,10.89,10.89M292.43,228.27c0-8.99-2.91-15.32-8.92-19.35-5.81-3.91-14.49-5.89-25.79-5.89-3.01,0-5.81.15-8.46.44-2,.22-3.88.53-5.67.91-.73.15-1.42.34-2.13.52-1.24.33-2.41.7-3.53,1.1-.56.2-1.13.4-1.66.63-1.57.67-3.04,1.41-4.33,2.28-6,4.03-8.92,10.36-8.92,19.35,0,20.64,15.55,37.45,34.7,37.45s34.7-16.81,34.7-37.45M445.73,149.94c-3.79,9.71-13.39,27.28-26.14,37.26-10.59,8.26-21.87,14.39-31.21,17.33v-14.3c14.41-14.74,38.46-35.08,57.35-40.29M221.81,204.52c-9.36-2.94-20.64-9.07-31.23-17.33-12.75-9.98-22.34-27.55-26.14-37.26,18.88,5.21,42.93,25.55,57.37,40.29v14.3ZM451.05,148.79c.21-.72-.23-1.36-.98-1.39-6.32-.28-33.38-.54-55.02,14.6-3.81,2.67-7.36,5.43-10.65,8.25-3.32-5.55-8.54-9.71-14.7-11.9.01-.28.08-.55.08-.82C373.56.53,445.47,31.51,436.11,26.16c-14.75-8.42-38.72-11.89-60.07,1.66,6.56,1.9,13.85,5.48,19.22,9.49.61.46.56.55-.14.19-7.99-4.19-16.74-5.91-25.43-5.1-5.56,4.6-10.85,10.47-15.64,17.95,7.55.67,17.34,4.1,24.3,8.41.67.4.61.49-.1.19-9.04-3.76-18.71-4.58-27.95-2.42-3.44,6.42-6.57,13.79-9.26,22.25,7.71-.51,18.88,2.2,26.81,6.21.68.34.65.43-.08.2-9.56-3.04-19.48-2.96-28.67.22-1.87,6.9-3.49,14.4-4.76,22.64,7.32-2.34,20.9-.62,30.36,3.15.71.29.68.38-.06.2-10.82-2.42-21.76-.99-31.36,4.1-.76,6.24-1.39,12.8-1.8,19.81,7.6-1.55,19.72.19,28.39,3.65.71.28.67.38-.08.22-9.83-2.2-19.74-1.24-28.65,2.76-.2,4.72-.3,9.6-.32,14.67h-51.51c-.03-5.07-.13-9.94-.3-14.67-8.93-4-18.85-4.96-28.67-2.76-.75.17-.77.06-.06-.22,8.66-3.46,20.78-5.19,28.38-3.65-.39-7-1.04-13.56-1.8-19.81-9.6-5.09-20.52-6.52-31.33-4.1-.76.18-.8.09-.09-.2,9.46-3.77,23.04-5.5,30.36-3.15-1.27-8.25-2.89-15.74-4.76-22.64-9.19-3.18-19.11-3.26-28.65-.22-.75.23-.78.14-.1-.2,7.93-4,19.1-6.71,26.81-6.21-2.67-8.46-5.8-15.83-9.26-22.25-9.25-2.17-18.91-1.34-27.95,2.42-.7.3-.75.22-.1-.19,6.97-4.31,16.76-7.75,24.3-8.41-4.79-7.47-10.08-13.35-15.64-17.95-8.69-.81-17.44.91-25.43,5.1-.67.36-.75.27-.11-.19,5.34-4,12.65-7.59,19.21-9.49-21.37-13.55-45.33-10.08-60.08-1.66-9.33,5.34,62.55-25.63,66.34,131.35,0,.28.08.54.08.82-6.17,2.19-11.39,6.36-14.68,11.9-3.29-2.81-6.87-5.57-10.68-8.25-21.63-15.15-48.7-14.88-55.02-14.6-.75.04-1.19.67-.98,1.39,1.9,6.03,10.92,31.55,32.55,46.7,9.55,6.69,19.16,11.71,27.76,14.88,1.06-1.71,2.33-3.19,3.7-4.58,2.61-2.63,5.8-4.67,9.36-6.28,4.33-1.98,9.16-3.38,14.53-4.07-.01-.02-.04-.05-.04-.08,3.43-.44,7.03-.66,10.75-.66,19.42,0,35.63,5.71,40.98,21.51,4.23-.71,8.54-.7,12.77-.1,5.4-15.72,21.61-21.4,40.96-21.4,3.72,0,7.32.22,10.77.66-.01.03-.04.05-.05.08,5.38.68,10.19,2.1,14.53,4.07,3.56,1.62,6.75,3.65,9.36,6.28,1.37,1.39,2.63,2.88,3.7,4.58,8.6-3.17,18.21-8.19,27.76-14.88,21.63-15.15,30.66-40.67,32.55-46.7"/>
    <path class="st0" d="M263.12,232.13c0,1.61-1.29,2.91-2.9,2.91s-2.9-1.3-2.9-2.91,1.29-2.9,2.9-2.9,2.9,1.29,2.9,2.9"/>
    <path class="st0" d="M352.38,232.13c0,1.61-1.29,2.91-2.91,2.91s-2.9-1.3-2.9-2.91,1.31-2.9,2.9-2.9,2.91,1.29,2.91,2.9"/>
    <path class="st0" d="M448.64,612.15c.79-4.7,4.59-7.79,8.84-7.79,4.48,0,8.13,3.2,8.96,7.79h-17.8ZM469.38,614.77c0-.28.05-.58.05-.86,0-6.29-5.13-12.17-11.96-12.17-6.38,0-11.83,5.37-11.83,11.99s5.4,11.92,11.86,11.92c4.89,0,9.47-3.08,11.22-8.01h-3.09c-1.24,3.34-4.62,5.38-8.16,5.38-4.42,0-8.59-3.7-8.84-8.26h20.75ZM382.4,612.15c.8-4.7,4.6-7.79,8.84-7.79,4.5,0,8.13,3.2,8.97,7.79h-17.81ZM403.16,614.77c0-.28.05-.58.05-.86,0-6.29-5.13-12.17-11.97-12.17-6.37,0-11.83,5.37-11.83,11.99s5.42,11.92,11.88,11.92c4.88,0,9.45-3.08,11.2-8.01h-3.08c-1.25,3.34-4.62,5.38-8.17,5.38-4.41,0-8.58-3.7-8.84-8.26h20.76ZM332.86,625.11v-20.16h5.82v-2.62h-5.82v-.17c0-4.05,1.7-5.72,5.75-5.72h.08v-2.7c-5.79.11-8.74,2.33-8.74,8.59h-3.55v2.62h3.55v20.16h2.91ZM280.5,625.11v-20.16h5.82v-2.62h-5.82v-.17c0-4.05,1.71-5.72,5.75-5.72h.08v-2.7c-5.79.11-8.74,2.33-8.74,8.59h-3.55v2.62h3.55v20.16h2.91ZM220.48,623.03c-4.95,0-9-4.21-9-9.22s4-9.45,8.97-9.45,9.04,4.26,9.04,9.21c0,5.22-3.87,9.46-9,9.46M220.44,625.65c6.41,0,11.96-5.33,11.96-11.96s-5.33-11.96-11.96-11.96-11.88,5.41-11.88,12.12c0,6.33,5.42,11.79,11.88,11.79M162.79,618.41c-1.62,3.05-4.58,4.62-8.04,4.62-5.28,0-9.41-4.12-9.41-9.39s4.15-9.28,9.41-9.28c3.31,0,6.33,1.66,8.04,4.84h3.2c-1.86-4.67-6.32-7.46-11.34-7.46-6.74,0-12.23,5.48-12.23,11.75,0,7.12,5.45,12.16,12.23,12.16,5.31,0,8.99-2.62,11.34-7.25h-3.2Z"/>
  </g>
</svg>