<?xml version="1.0" encoding="UTF-8"?>
<svg id="Layer_1" xmlns="http://www.w3.org/2000/svg" version="1.1" viewBox="0 0 612 612">
  <!-- Generator: Adobe Illustrator 29.7.1, SVG Export Plug-In . SVG Version: 2.1.1 Build 8)  -->
  <defs>
    <style>
      .st0 {
        fill: #262525;
      }

      .st1 {
        fill: #fff;
      }

      .st2 {
        fill: #272525;
      }
    </style>
  </defs>
  <g>
    <circle class="st2" cx="306" cy="306" r="289.39"/>
    <circle class="st0" cx="306" cy="306" r="289.39"/>
  </g>
  <g>
    <path class="st1" d="M316.06,508.75c0,1.46-1.47,1.46-1.47,1.46h-19.1c-1.47,0-1.47-1.46-1.47-1.46v-19.24c0-1.48,1.47-1.48,1.47-1.48h19.1c1.47,0,1.47,1.48,1.47,1.48v19.24ZM353.52,481.21c1.11-8.71-4.25-12.4-11.98-8.22l-24.42,13.97c-.82-.8-1.92-1.31-3.17-1.31h-17.91c-1.32,0-2.46.58-3.27,1.47l-24.34-14.07c-7.73-4.22-12.99-.57-11.78,8.13l2.41,17.92-2.41,17.93c-1.21,8.69,4.05,12.33,11.78,8.13l24.34-14.07c.81.89,1.95,1.46,3.27,1.46h17.91c1.24,0,2.34-.49,3.17-1.3l24.42,13.97c7.73,4.18,13.1.49,11.98-8.21l-2.2-17.91,2.2-17.9h0Z"/>
    <path class="st1" d="M221.81,319.69v112.26c0,15.32,12.41,27.76,27.74,27.76h53.45v-37.67c-14.28-1.93-30.75-22.58-31.46-23.51-.72-.91-.56-2.22.33-2.93.91-.72,2.22-.56,2.94.34.16.23,17.58,22.12,30.29,22.12,10.55,0,25.43-15.96,30.27-22.12.72-.9,2.03-1.06,2.94-.34.89.71,1.05,2.01.33,2.93-.71.92-17.17,21.58-31.46,23.51v37.67h53.45c15.32,0,27.76-12.44,27.76-27.76v-112.26c-7.7,12.44-20.9,20.67-35.94,20.67-23.76,0-43.04-20.51-43.04-45.77,0-1.8.32-3.31.51-4.93-3.22-.39-6.43-.37-9.62.1.18,1.6.48,3.07.48,4.83,0,25.27-19.28,45.77-43.04,45.77-15.05,0-28.24-8.23-35.92-20.67M360.62,297.99c0,6.02-4.89,10.89-10.91,10.89s-10.89-4.88-10.89-10.89,4.88-10.89,10.89-10.89,10.91,4.88,10.91,10.89M387.14,294.59c0-8.99-2.91-15.32-8.92-19.35-1.29-.87-2.76-1.61-4.32-2.28-.53-.23-1.1-.43-1.67-.63-1.13-.41-2.29-.77-3.53-1.1-.7-.18-1.39-.37-2.13-.52-1.79-.38-3.67-.7-5.66-.91-2.65-.29-5.46-.44-8.47-.44-11.27,0-19.96,1.98-25.79,5.89-6,4.03-8.92,10.36-8.92,19.35,0,20.64,15.58,37.45,34.7,37.45s34.7-16.81,34.7-37.45M271.34,297.99c0,6.02-4.88,10.89-10.89,10.89s-10.9-4.88-10.9-10.89,4.89-10.89,10.9-10.89,10.89,4.88,10.89,10.89M292.43,294.59c0-8.99-2.91-15.32-8.92-19.35-5.81-3.91-14.49-5.89-25.79-5.89-3.01,0-5.81.15-8.46.44-2,.22-3.88.53-5.67.91-.73.15-1.42.34-2.13.52-1.24.33-2.41.7-3.53,1.1-.56.2-1.13.4-1.66.63-1.57.67-3.04,1.41-4.33,2.28-6,4.03-8.92,10.36-8.92,19.35,0,20.64,15.55,37.45,34.7,37.45s34.7-16.81,34.7-37.45M445.73,216.26c-3.79,9.71-13.39,27.28-26.14,37.26-10.59,8.26-21.87,14.39-31.21,17.33v-14.3c14.41-14.74,38.46-35.08,57.35-40.29M221.81,270.84c-9.36-2.94-20.64-9.07-31.23-17.33-12.75-9.98-22.34-27.55-26.14-37.26,18.88,5.21,42.93,25.55,57.37,40.29v14.3ZM451.05,215.11c.21-.72-.23-1.36-.98-1.39-6.32-.28-33.38-.54-55.02,14.6-3.81,2.67-7.36,5.43-10.65,8.25-3.32-5.55-8.54-9.71-14.7-11.9.01-.28.08-.55.08-.82,3.78-157,75.69-126.02,66.33-131.37-14.75-8.42-38.72-11.89-60.07,1.66,6.56,1.9,13.85,5.48,19.22,9.49.61.46.56.55-.14.19-7.99-4.19-16.74-5.91-25.43-5.1-5.56,4.6-10.85,10.47-15.64,17.95,7.55.67,17.34,4.1,24.3,8.41.67.4.61.49-.1.19-9.04-3.76-18.71-4.58-27.95-2.42-3.44,6.42-6.57,13.79-9.26,22.25,7.71-.51,18.88,2.2,26.81,6.21.68.34.65.43-.08.2-9.56-3.04-19.48-2.96-28.67.22-1.87,6.9-3.49,14.4-4.76,22.64,7.32-2.34,20.9-.62,30.36,3.15.71.29.68.38-.06.2-10.82-2.42-21.76-.99-31.36,4.1-.76,6.24-1.39,12.8-1.8,19.81,7.6-1.55,19.72.19,28.39,3.65.71.28.67.38-.08.22-9.83-2.2-19.74-1.24-28.65,2.76-.2,4.72-.3,9.6-.32,14.67h-51.51c-.03-5.07-.13-9.94-.3-14.67-8.93-4-18.85-4.96-28.67-2.76-.75.17-.77.06-.06-.22,8.66-3.46,20.78-5.19,28.38-3.65-.39-7-1.04-13.56-1.8-19.81-9.6-5.09-20.52-6.52-31.33-4.1-.76.18-.8.09-.09-.2,9.46-3.77,23.04-5.5,30.36-3.15-1.27-8.25-2.89-15.74-4.76-22.64-9.19-3.18-19.11-3.26-28.65-.22-.75.23-.78.14-.1-.2,7.93-4,19.1-6.71,26.81-6.21-2.67-8.46-5.8-15.83-9.26-22.25-9.25-2.17-18.91-1.34-27.95,2.42-.7.3-.75.22-.1-.19,6.97-4.31,16.76-7.75,24.3-8.41-4.79-7.47-10.08-13.35-15.64-17.95-8.69-.81-17.44.91-25.43,5.1-.67.36-.75.27-.11-.19,5.34-4,12.65-7.59,19.21-9.49-21.37-13.55-45.33-10.08-60.08-1.66-9.33,5.34,62.55-25.63,66.34,131.35,0,.28.08.54.08.82-6.17,2.19-11.39,6.36-14.68,11.9-3.29-2.81-6.87-5.57-10.68-8.25-21.63-15.15-48.7-14.88-55.02-14.6-.75.04-1.19.67-.98,1.39,1.9,6.03,10.92,31.55,32.55,46.7,9.55,6.69,19.16,11.71,27.76,14.88,1.06-1.71,2.33-3.19,3.7-4.58,2.61-2.63,5.8-4.67,9.36-6.28,4.33-1.98,9.16-3.38,14.53-4.07,0-.02-.04-.05-.04-.08,3.43-.44,7.03-.66,10.75-.66,19.42,0,35.63,5.71,40.98,21.51,4.23-.71,8.54-.7,12.77-.1,5.4-15.72,21.61-21.4,40.96-21.4,3.72,0,7.32.22,10.77.66-.01.03-.04.05-.05.08,5.38.68,10.19,2.1,14.53,4.07,3.56,1.62,6.75,3.65,9.36,6.28,1.37,1.39,2.63,2.88,3.7,4.58,8.6-3.17,18.21-8.19,27.76-14.88,21.63-15.15,30.66-40.67,32.55-46.7"/>
    <path class="st1" d="M263.12,298.45c0,1.61-1.29,2.91-2.9,2.91s-2.9-1.3-2.9-2.91,1.29-2.9,2.9-2.9,2.9,1.29,2.9,2.9"/>
    <path class="st1" d="M352.38,298.45c0,1.61-1.29,2.91-2.91,2.91s-2.9-1.3-2.9-2.91,1.31-2.9,2.9-2.9,2.91,1.29,2.91,2.9"/>
  </g>
</svg>